<svg xmlns="http://www.w3.org/2000/svg" width="32" height="32">
<path d="M26.041 18.549H15.975l-1.473 1.473h2.819v8.971h-6.866a4.49 4.49 0 0 1-4.342-3.378c-.053.001-.107.004-.16.004-.461 0-.922-.045-1.376-.134a5.968 5.968 0 0 0 5.878 4.981h15.587c3.286 0 5.959-2.673 5.959-5.959s-2.673-5.959-5.959-5.959zm-1.358 10.37h-4.934a.632.632 0 0 1 0-1.264h4.934a.632.632 0 0 1 0 1.264zm2.518 0h-.245a.632.632 0 0 1 0-1.264h.245a.632.632 0 0 1 0 1.264zM21.188 3.272c-1.121-1.122-2.618-1.739-4.214-1.739s-3.092.617-4.214 1.739L1.739 14.293C.618 15.414 0 16.91 0 18.506s.617 3.092 1.739 4.214c1.162 1.162 2.687 1.742 4.214 1.742s3.052-.581 4.214-1.742l11.021-11.021c1.122-1.122 1.739-2.618 1.739-4.214s-.618-3.092-1.739-4.213zM9.125 21.679a4.491 4.491 0 0 1-6.344 0c-.843-.843-1.308-1.97-1.308-3.172s.465-2.329 1.308-3.172l4.855-4.855 6.344 6.344-4.855 4.855zm10.008-10.115-3.489 3.489a.63.63 0 1 1-.894-.893l3.489-3.489a.63.63 0 1 1 .893.893zm1.78-1.78-.173.173a.63.63 0 1 1-.894-.893l.173-.173a.63.63 0 1 1 .893.893z"/></svg>